<?xml version="1.0" encoding="utf-8"?>
<!-- Generator: Adobe Illustrator 25.4.1, SVG Export Plug-In . SVG Version: 6.00 Build 0)  -->
<svg version="1.1" id="Слой_2_00000096034241704764079280000004546272338383681440_"
	 xmlns="http://www.w3.org/2000/svg" xmlns:xlink="http://www.w3.org/1999/xlink" x="0px" y="0px" viewBox="0 0 8192 8192"
	 style="enable-background:new 0 0 8192 8192;" xml:space="preserve">
<style type="text/css">
	.st0{fill:#BFBFBF;}
	.st1{fill:#8B8B94;}
	.st2{fill:#F2F2A7;}
	.st3{display:none;fill:#808080;}
	.st4{display:none;fill:#BFBFBF;}
	.st5{display:none;fill:#EFF2F2;}
	.st6{display:none;}
	.st7{display:none;fill:#AEBFBF;}
	.st8{display:none;fill:#FFFFFF;}
</style>
<g id="Слой_3">
	<path class="st0" d="M6755.6,2101.5v-880.3H3937.9l0,0H1574.8v880.3c157.9,43.4,156.6,244.9,0,299.9l19.2,4141.7h2438.5l0,0h2700.8
		l22.5-4141.7C6572.8,2346.6,6571,2145.1,6755.6,2101.5z"/>
	<path class="st1" d="M6354.5,2709.5l3.1-710.6V1868c0,0-59.2-140-163.2-182.6H4462.7h-597H2134c-104,42.7-163.2,182.6-163.2,182.6
		v130.9l3.1,710.6c-152.8,88.3-178,198-178,198v1960l175.1,158.4v1054.5c3.1,103.5,189.9,160.7,189.9,160.7h339.9
		c53.9,59.5,158.4,91.3,158.4,91.3h1171c176.5-168.1,196.4-190.9,196.4-190.9h866.2c26.5,25.6,60.5,58.3,104.2,99.6h1171
		c0,0,186.8-57.2,189.9-160.7V5025.9l175.1-158.4v-1960C6532.1,2907.5,6506.9,2797.8,6354.5,2709.5z"/>
</g>
<g id="Слой_4">
	<ellipse class="st2" cx="1715.3" cy="1374.7" rx="81.5" ry="79.6"/>
	<ellipse class="st2" cx="6575.4" cy="6359.9" rx="80.3" ry="62.4"/>
	<ellipse class="st2" cx="6533" cy="1346.2" rx="49" ry="47.8"/>
	<polygon class="st2" points="1591.1,6168.1 1592.5,6537.9 2021.7,6537.9 	"/>
	<ellipse class="st2" cx="1673.8" cy="1780.1" rx="28.4" ry="27.8"/>
	<ellipse class="st2" cx="1740.4" cy="1822.8" rx="28.4" ry="27.8"/>
	<ellipse class="st2" cx="1669" cy="1869" rx="28.4" ry="27.8"/>
	<ellipse class="st2" cx="1735.6" cy="1911.6" rx="28.4" ry="27.8"/>
	<ellipse class="st2" cx="4511.4" cy="1312.6" rx="37" ry="36"/>
	<ellipse class="st2" cx="4420.4" cy="1312.4" rx="37" ry="36"/>
	<ellipse class="st2" cx="4329.7" cy="1312.4" rx="37" ry="36"/>
	<ellipse class="st2" cx="4238.6" cy="1312.4" rx="37" ry="36"/>
	<ellipse class="st2" cx="4147.6" cy="1312.1" rx="37" ry="36"/>
	<ellipse class="st2" cx="4056.5" cy="1312.1" rx="37" ry="36"/>
	<ellipse class="st2" cx="3965.5" cy="1312" rx="37" ry="36"/>
	<ellipse class="st2" cx="3874.4" cy="1312" rx="37" ry="36"/>
	<ellipse class="st2" cx="3783.4" cy="1311.7" rx="37" ry="36"/>
	<ellipse class="st2" cx="3692.7" cy="1311.7" rx="37" ry="36"/>
	<ellipse class="st2" cx="3601.6" cy="1311.7" rx="37" ry="36"/>
	<ellipse class="st2" cx="3510.6" cy="1311.5" rx="37" ry="36"/>
	<ellipse class="st2" cx="3419.5" cy="1311.5" rx="37" ry="36"/>
	<ellipse class="st2" cx="3328.5" cy="1311.2" rx="37" ry="36"/>
	<ellipse class="st2" cx="3237.4" cy="1311.2" rx="37" ry="36"/>
	<ellipse class="st2" cx="3146.4" cy="1311.1" rx="37" ry="36"/>
	<ellipse class="st2" cx="3055.7" cy="1311.1" rx="37" ry="36"/>
	<ellipse class="st2" cx="2964.6" cy="1311.1" rx="37" ry="36"/>
	<ellipse class="st2" cx="2873.6" cy="1310.8" rx="37" ry="36"/>
	<ellipse class="st2" cx="2782.5" cy="1310.8" rx="37" ry="36"/>
	<ellipse class="st2" cx="2691.5" cy="1310.6" rx="37" ry="36"/>
	<ellipse class="st2" cx="2600.4" cy="1310.6" rx="37" ry="36"/>
	<ellipse class="st2" cx="2509.4" cy="1310.6" rx="37" ry="36"/>
	<ellipse class="st2" cx="2418.6" cy="1310.3" rx="37" ry="36"/>
	<ellipse class="st2" cx="2327.6" cy="1310.3" rx="37" ry="36"/>
	<ellipse class="st2" cx="2236.5" cy="1310.2" rx="37" ry="36"/>
	<ellipse class="st2" cx="4575.9" cy="1418.5" rx="37" ry="36"/>
	<ellipse class="st2" cx="4484.9" cy="1418.5" rx="37" ry="36"/>
	<ellipse class="st2" cx="4393.8" cy="1418.3" rx="37" ry="36"/>
	<ellipse class="st2" cx="4302.8" cy="1418.3" rx="37" ry="36"/>
	<ellipse class="st2" cx="4211.7" cy="1418.3" rx="37" ry="36"/>
	<ellipse class="st2" cx="4120.7" cy="1418" rx="37" ry="36"/>
	<ellipse class="st2" cx="4030" cy="1418" rx="37" ry="36"/>
	<ellipse class="st2" cx="3938.9" cy="1417.9" rx="37" ry="36"/>
	<ellipse class="st2" cx="3847.9" cy="1417.9" rx="37" ry="36"/>
	<ellipse class="st2" cx="3756.8" cy="1417.7" rx="37" ry="36"/>
	<ellipse class="st2" cx="3665.8" cy="1417.7" rx="37" ry="36"/>
	<ellipse class="st2" cx="3574.7" cy="1417.7" rx="37" ry="36"/>
	<ellipse class="st2" cx="3483.7" cy="1417.4" rx="37" ry="36"/>
	<ellipse class="st2" cx="3393" cy="1417.4" rx="37" ry="36"/>
	<ellipse class="st2" cx="3301.9" cy="1417.2" rx="37" ry="36"/>
	<ellipse class="st2" cx="3210.9" cy="1417.2" rx="37" ry="36"/>
	<ellipse class="st2" cx="3119.8" cy="1417.2" rx="37" ry="36"/>
	<ellipse class="st2" cx="3028.8" cy="1416.9" rx="37" ry="36"/>
	<ellipse class="st2" cx="2937.7" cy="1416.9" rx="37" ry="36"/>
	<ellipse class="st2" cx="2846.7" cy="1416.8" rx="37" ry="36"/>
	<ellipse class="st2" cx="2755.6" cy="1416.8" rx="37" ry="36"/>
	<ellipse class="st2" cx="2664.9" cy="1416.5" rx="37" ry="36"/>
	<ellipse class="st2" cx="2573.9" cy="1416.5" rx="37" ry="36"/>
	<ellipse class="st2" cx="2482.8" cy="1416.5" rx="37" ry="36"/>
	<ellipse class="st2" cx="2391.8" cy="1416.3" rx="37" ry="36"/>
	<ellipse class="st2" cx="2300.7" cy="1416.3" rx="37" ry="36"/>
	<ellipse class="st2" cx="4675.6" cy="1528.4" rx="37" ry="36"/>
	<ellipse class="st2" cx="4584.5" cy="1528.4" rx="37" ry="36"/>
	<ellipse class="st2" cx="4493.5" cy="1528.4" rx="37" ry="36"/>
	<ellipse class="st2" cx="4402.4" cy="1528.3" rx="37" ry="36"/>
	<ellipse class="st2" cx="4311.4" cy="1528.3" rx="37" ry="36"/>
	<ellipse class="st2" cx="4220.5" cy="1528" rx="37" ry="36"/>
	<ellipse class="st2" cx="4129.6" cy="1528" rx="37" ry="36"/>
	<ellipse class="st2" cx="4038.5" cy="1527.8" rx="37" ry="36"/>
	<ellipse class="st2" cx="3947.5" cy="1527.8" rx="37" ry="36"/>
	<ellipse class="st2" cx="3856.4" cy="1527.8" rx="37" ry="36"/>
	<ellipse class="st2" cx="3765.4" cy="1527.5" rx="37" ry="36"/>
	<ellipse class="st2" cx="3674.5" cy="1527.5" rx="37" ry="36"/>
	<ellipse class="st2" cx="3583.5" cy="1527.4" rx="37" ry="36"/>
	<ellipse class="st2" cx="3492.6" cy="1527.4" rx="37" ry="36"/>
	<ellipse class="st2" cx="3401.5" cy="1527.1" rx="37" ry="36"/>
	<ellipse class="st2" cx="3310.5" cy="1527.1" rx="37" ry="36"/>
	<ellipse class="st2" cx="3219.4" cy="1527.1" rx="37" ry="36"/>
	<ellipse class="st2" cx="3128.4" cy="1526.9" rx="37" ry="36"/>
	<ellipse class="st2" cx="3037.5" cy="1526.9" rx="37" ry="36"/>
	<ellipse class="st2" cx="2946.5" cy="1526.6" rx="37" ry="36"/>
	<ellipse class="st2" cx="2855.4" cy="1526.6" rx="37" ry="36"/>
	<ellipse class="st2" cx="2764.5" cy="1526.6" rx="37" ry="36"/>
	<ellipse class="st2" cx="2673.5" cy="1526.5" rx="37" ry="36"/>
	<ellipse class="st2" cx="2582.4" cy="1526.5" rx="37" ry="36"/>
	<ellipse class="st2" cx="2491.5" cy="1526.1" rx="37" ry="36"/>
	<ellipse class="st2" cx="2400.5" cy="1526.1" rx="37" ry="36"/>
</g>
<path class="st3" d="M3806.3,4152.1v-14.9c3.8-1.6,7-3.7,8.5-7.4l89.4-0.8c0.1,2.6,1.6,5.1,4,7.6h4v5.6l19.4-0.1v-5.6l3,0
	c3.1-1.5,5.1-3.8,5-7.5h73v23.1h71.7V4129h249.4v23.1h-2.8v15.1h2.8v16.6h-4.7l0,9.2h4.5v40.6h-527.2v-38.4L3806.3,4152.1
	L3806.3,4152.1z"/>
<path class="st4" d="M3793.8,4195.5l12.5,0.3V4171c0,0-2.4,3.4-4.8,1.7c-2.4-1.7-3-3.6-3-3.6l-0.1-6.8c0.7-2.2,1.6-3.8,3.2-4.2
	l-7.8,0.2L3793.8,4195.5L3793.8,4195.5z"/>
<path class="st4" d="M3806.3,4160c-0.7-1.5-2.1-2.3-4.8-1.9c-2.8,0.3-7.7,0.2-7.7,0.2v-10.2l6.3-4.1v-6c-2.6-0.2-4.7-1.3-6.3-3.4
	v-7.4c0,0,1.6-4.5,5.4-0.8l0,5.3c0,2.4,1.5,3.8,3.9,4.7c2.3,0.6,3.8-0.3,4.1-3.3h3.7h2.5L3806.3,4160z"/>
<path class="st4" d="M3814.3,4135.4l-3.4-2.3c1.1-3.7,1-6.6-1.4-8.2h16.4v3.2l507.8-3v4.4L3814.3,4135.4z"/>
<polygon class="st5" points="3825.9,4119.9 4333.7,4119.9 4333.7,4125.1 3825.9,4128.1 "/>
<polygon class="st4" points="3845,4194.8 3847.9,4194.8 3847.9,4186.8 3864.5,4186.8 3864.5,4171.9 3850.5,4172.5 3850.4,4174.7 
	3858.2,4174.7 3858.2,4178.1 3845,4178.3 3845,4171.9 3842.6,4171.9 3842.6,4192.8 3845.1,4192.8 "/>
<polygon class="st4" points="3845.4,4153 3845.4,4162.8 3864.5,4162.5 3864.5,4166 3854.2,4166 3852.4,4168.4 3852.4,4169.5 
	3855.3,4169.5 3856.3,4167.3 3858.8,4167.3 3860.4,4169.5 3864.5,4169.5 3866.6,4169.5 3866.6,4154.7 3854.6,4154.7 3854.6,4153 "/>
<rect x="3866.6" y="4161.3" class="st4" width="439" height="4.1"/>
<polyline class="st4" points="3870.8,4189.8 3872.4,4189.8 3872.4,4154.3 3870.8,4154.3 "/>
<polyline class="st4" points="3875,4189.8 3876.7,4189.8 3876.7,4154.3 3875,4154.3 "/>
<polyline class="st4" points="3879.2,4189.8 3880.9,4189.8 3880.9,4154.3 3879.2,4154.3 "/>
<polyline class="st4" points="3883.5,4189.8 3885.1,4189.8 3885.1,4154.3 3883.5,4154.3 "/>
<polyline class="st4" points="3887.7,4189.8 3889.3,4189.8 3889.3,4154.3 3887.7,4154.3 "/>
<polyline class="st4" points="3891.9,4189.8 3893.5,4189.8 3893.5,4154.3 3891.9,4154.3 "/>
<polyline class="st4" points="3896.1,4189.8 3897.8,4189.8 3897.8,4154.3 3896.1,4154.3 "/>
<polyline class="st4" points="3900.3,4189.8 3902,4189.8 3902,4154.3 3900.3,4154.3 "/>
<polyline class="st4" points="3904.6,4189.8 3906.2,4189.8 3906.2,4154.3 3904.6,4154.3 "/>
<polyline class="st4" points="3908.8,4189.8 3910.4,4189.8 3910.4,4154.3 3908.8,4154.3 "/>
<polyline class="st4" points="3913,4189.8 3914.6,4189.8 3914.6,4154.3 3913,4154.3 "/>
<polyline class="st4" points="3917.2,4189.8 3918.9,4189.8 3918.9,4154.3 3917.2,4154.3 "/>
<polyline class="st4" points="3921.4,4189.8 3923.1,4189.8 3923.1,4154.3 3921.4,4154.3 "/>
<polyline class="st4" points="3925.7,4189.8 3927.3,4189.8 3927.3,4154.3 3925.7,4154.3 "/>
<polyline class="st4" points="3929.9,4189.8 3931.5,4189.8 3931.5,4154.3 3929.9,4154.3 "/>
<polyline class="st4" points="3934.1,4189.8 3935.7,4189.8 3935.7,4154.3 3934.1,4154.3 "/>
<polyline class="st4" points="3938.3,4189.8 3940,4189.8 3940,4154.3 3938.3,4154.3 "/>
<polyline class="st4" points="3942.5,4189.8 3944.2,4189.8 3944.2,4154.3 3942.5,4154.3 "/>
<polyline class="st4" points="3946.8,4189.8 3948.4,4189.8 3948.4,4154.3 3946.8,4154.3 "/>
<polyline class="st4" points="3951,4189.8 3952.6,4189.8 3952.6,4154.3 3951,4154.3 "/>
<polyline class="st4" points="3955.2,4189.8 3956.8,4189.8 3956.8,4154.3 3955.2,4154.3 "/>
<polyline class="st4" points="3959.4,4189.8 3961.1,4189.8 3961.1,4154.3 3959.4,4154.3 "/>
<polyline class="st4" points="3963.6,4189.8 3965.3,4189.8 3965.3,4154.3 3963.6,4154.3 "/>
<polyline class="st4" points="3967.9,4189.8 3969.5,4189.8 3969.5,4154.3 3967.9,4154.3 "/>
<polyline class="st4" points="3972.1,4189.8 3973.7,4189.8 3973.7,4154.3 3972.1,4154.3 "/>
<polyline class="st4" points="3976.3,4189.8 3978,4189.8 3978,4154.3 3976.3,4154.3 "/>
<polyline class="st4" points="3980.5,4189.8 3982.2,4189.8 3982.2,4154.3 3980.5,4154.3 "/>
<polyline class="st4" points="3984.8,4189.8 3986.4,4189.8 3986.4,4154.3 3984.8,4154.3 "/>
<polyline class="st4" points="3989,4189.8 3990.6,4189.8 3990.6,4154.3 3989,4154.3 "/>
<polyline class="st4" points="3993.2,4189.8 3994.8,4189.8 3994.8,4154.3 3993.2,4154.3 "/>
<polyline class="st4" points="3997.4,4189.8 3999.1,4189.8 3999.1,4154.3 3997.4,4154.3 "/>
<polyline class="st4" points="4001.6,4189.8 4003.3,4189.8 4003.3,4154.3 4001.6,4154.3 "/>
<polyline class="st4" points="4005.9,4189.8 4007.5,4189.8 4007.5,4154.3 4005.9,4154.3 "/>
<polyline class="st4" points="4010.1,4189.8 4011.7,4189.8 4011.7,4154.3 4010.1,4154.3 "/>
<polyline class="st4" points="4014.3,4189.8 4015.9,4189.8 4015.9,4154.3 4014.3,4154.3 "/>
<polyline class="st4" points="4018.5,4189.8 4020.2,4189.8 4020.2,4154.3 4018.5,4154.3 "/>
<polyline class="st4" points="4022.7,4189.8 4024.4,4189.8 4024.4,4154.3 4022.7,4154.3 "/>
<polyline class="st4" points="4027,4189.8 4028.6,4189.8 4028.6,4154.3 4027,4154.3 "/>
<polyline class="st4" points="4031.2,4189.8 4032.8,4189.8 4032.8,4154.3 4031.2,4154.3 "/>
<polyline class="st4" points="4035.4,4189.8 4037,4189.8 4037,4154.3 4035.4,4154.3 "/>
<polyline class="st4" points="4039.6,4189.8 4041.3,4189.8 4041.3,4154.3 4039.6,4154.3 "/>
<polyline class="st4" points="4043.8,4189.8 4045.5,4189.8 4045.5,4154.3 4043.8,4154.3 "/>
<polyline class="st4" points="4048.1,4189.8 4049.7,4189.8 4049.7,4154.3 4048.1,4154.3 "/>
<polyline class="st4" points="4052.3,4189.8 4053.9,4189.8 4053.9,4154.3 4052.3,4154.3 "/>
<polyline class="st4" points="4056.5,4189.8 4058.1,4189.8 4058.1,4154.3 4056.5,4154.3 "/>
<polyline class="st4" points="4060.7,4189.8 4062.4,4189.8 4062.4,4154.3 4060.7,4154.3 "/>
<polyline class="st4" points="4064.9,4189.8 4066.6,4189.8 4066.6,4154.3 4064.9,4154.3 "/>
<polyline class="st4" points="4069.2,4189.8 4070.8,4189.8 4070.8,4154.3 4069.2,4154.3 "/>
<polyline class="st4" points="4073.4,4189.8 4075,4189.8 4075,4154.3 4073.4,4154.3 "/>
<polyline class="st4" points="4077.6,4189.8 4079.2,4189.8 4079.2,4154.3 4077.6,4154.3 "/>
<polyline class="st4" points="4081.8,4189.8 4083.5,4189.8 4083.5,4154.3 4081.8,4154.3 "/>
<polyline class="st4" points="4086,4189.8 4087.7,4189.8 4087.7,4154.3 4086,4154.3 "/>
<polyline class="st4" points="4090.3,4189.8 4091.9,4189.8 4091.9,4154.3 4090.3,4154.3 "/>
<polyline class="st4" points="4094.5,4189.8 4096.1,4189.8 4096.1,4154.3 4094.5,4154.3 "/>
<polyline class="st4" points="4098.7,4189.8 4100.3,4189.8 4100.3,4154.3 4098.7,4154.3 "/>
<polyline class="st4" points="4102.9,4189.8 4104.6,4189.8 4104.6,4154.3 4102.9,4154.3 "/>
<polyline class="st4" points="4107.1,4189.8 4108.8,4189.8 4108.8,4154.3 4107.1,4154.3 "/>
<polyline class="st4" points="4111.4,4189.8 4113,4189.8 4113,4154.3 4111.4,4154.3 "/>
<polyline class="st4" points="4115.6,4189.8 4117.2,4189.8 4117.2,4154.3 4115.6,4154.3 "/>
<polyline class="st4" points="4119.8,4189.8 4121.5,4189.8 4121.5,4154.3 4119.8,4154.3 "/>
<polyline class="st4" points="4124,4189.8 4125.7,4189.8 4125.7,4154.3 4124,4154.3 "/>
<polyline class="st4" points="4128.3,4189.8 4129.9,4189.8 4129.9,4154.3 4128.3,4154.3 "/>
<polyline class="st4" points="4132.5,4189.8 4134.1,4189.8 4134.1,4154.3 4132.5,4154.3 "/>
<polyline class="st4" points="4136.7,4189.8 4138.3,4189.8 4138.3,4154.3 4136.7,4154.3 "/>
<polyline class="st4" points="4140.9,4189.8 4142.6,4189.8 4142.6,4154.3 4140.9,4154.3 "/>
<polyline class="st4" points="4145.1,4189.8 4146.8,4189.8 4146.8,4154.3 4145.1,4154.3 "/>
<polyline class="st4" points="4149.4,4189.8 4151,4189.8 4151,4154.3 4149.4,4154.3 "/>
<polyline class="st4" points="4153.6,4189.8 4155.2,4189.8 4155.2,4154.3 4153.6,4154.3 "/>
<polyline class="st4" points="4157.8,4189.8 4159.4,4189.8 4159.4,4154.3 4157.8,4154.3 "/>
<polyline class="st4" points="4162,4189.8 4163.7,4189.8 4163.7,4154.3 4162,4154.3 "/>
<polyline class="st4" points="4166.2,4189.8 4167.9,4189.8 4167.9,4154.3 4166.2,4154.3 "/>
<polyline class="st4" points="4170.5,4189.8 4172.1,4189.8 4172.1,4154.3 4170.5,4154.3 "/>
<polyline class="st4" points="4174.7,4189.8 4176.3,4189.8 4176.3,4154.3 4174.7,4154.3 "/>
<polyline class="st4" points="4178.9,4189.8 4180.5,4189.8 4180.5,4154.3 4178.9,4154.3 "/>
<polyline class="st4" points="4183.1,4189.8 4184.8,4189.8 4184.8,4154.3 4183.1,4154.3 "/>
<polyline class="st4" points="4187.3,4189.8 4189,4189.8 4189,4154.3 4187.3,4154.3 "/>
<polyline class="st4" points="4191.6,4189.8 4193.2,4189.8 4193.2,4154.3 4191.6,4154.3 "/>
<polyline class="st4" points="4195.8,4189.8 4197.4,4189.8 4197.4,4154.3 4195.8,4154.3 "/>
<polyline class="st4" points="4200,4189.8 4201.6,4189.8 4201.6,4154.3 4200,4154.3 "/>
<polyline class="st4" points="4204.2,4189.8 4205.9,4189.8 4205.9,4154.3 4204.2,4154.3 "/>
<polyline class="st4" points="4208.4,4189.8 4210.1,4189.8 4210.1,4154.3 4208.4,4154.3 "/>
<polyline class="st4" points="4212.7,4189.8 4214.3,4189.8 4214.3,4154.3 4212.7,4154.3 "/>
<polyline class="st4" points="4216.9,4189.8 4218.5,4189.8 4218.5,4154.3 4216.9,4154.3 "/>
<polyline class="st4" points="4221.1,4189.8 4222.7,4189.8 4222.7,4154.3 4221.1,4154.3 "/>
<polyline class="st4" points="4225.3,4189.8 4227,4189.8 4227,4154.3 4225.3,4154.3 "/>
<polyline class="st4" points="4229.5,4189.8 4231.2,4189.8 4231.2,4154.3 4229.5,4154.3 "/>
<polyline class="st4" points="4233.8,4189.8 4235.4,4189.8 4235.4,4154.3 4233.8,4154.3 "/>
<polyline class="st4" points="4238,4189.8 4239.6,4189.8 4239.6,4154.3 4238,4154.3 "/>
<polyline class="st4" points="4242.2,4189.8 4243.8,4189.8 4243.8,4154.3 4242.2,4154.3 "/>
<polyline class="st4" points="4246.4,4189.8 4248.1,4189.8 4248.1,4154.3 4246.4,4154.3 "/>
<polyline class="st4" points="4250.6,4189.8 4252.3,4189.8 4252.3,4154.3 4250.6,4154.3 "/>
<polyline class="st4" points="4254.9,4189.8 4256.5,4189.8 4256.5,4154.3 4254.9,4154.3 "/>
<polyline class="st4" points="4259.1,4189.8 4260.7,4189.8 4260.7,4154.3 4259.1,4154.3 "/>
<polyline class="st4" points="4263.3,4189.8 4264.9,4189.8 4264.9,4154.3 4263.3,4154.3 "/>
<polyline class="st4" points="4267.5,4189.8 4269.2,4189.8 4269.2,4154.3 4267.5,4154.3 "/>
<polyline class="st4" points="4271.7,4189.8 4273.4,4189.8 4273.4,4154.3 4271.7,4154.3 "/>
<polyline class="st4" points="4276,4189.8 4277.6,4189.8 4277.6,4154.3 4276,4154.3 "/>
<polyline class="st4" points="4280.2,4189.8 4281.8,4189.8 4281.8,4154.3 4280.2,4154.3 "/>
<polyline class="st4" points="4284.4,4189.8 4286,4189.8 4286,4154.3 4284.4,4154.3 "/>
<polyline class="st4" points="4288.6,4189.8 4290.3,4189.8 4290.3,4154.3 4288.6,4154.3 "/>
<polyline class="st4" points="4292.8,4189.8 4294.5,4189.8 4294.5,4154.3 4292.8,4154.3 "/>
<polyline class="st4" points="4297.1,4189.8 4298.7,4189.8 4298.7,4154.3 4297.1,4154.3 "/>
<polyline class="st4" points="4301.3,4189.8 4302.9,4189.8 4302.9,4154.3 4301.3,4154.3 "/>
<path class="st6" d="M3906.3,4134.3l2,2.3h4v5.6l19.4-0.1v-5.6l3,0c1.5-0.7,2.7-1.6,3.3-2.5L3906.3,4134.3z"/>
<polygon class="st6" points="4012.7,4133.1 4012.7,4152.1 4084.4,4152.1 4084.4,4132.3 "/>
<path class="st5" d="M3807,4189.9v42.7h526.5v-40.6l-9.9,0l-12.8,18.1c-0.9,1.2-2.1,2-3.8,1.9l-50.7,0.2l-13.8-0.1l-16.8,11.1
	l-2.3,1.4l-38.7,0.1l-264.4,0l-20-12.5l-64.9-1.8l-12.1-20.4L3807,4189.9L3807,4189.9z"/>
<path class="st7" d="M3999.7,4224.9"/>
<rect x="4016.6" y="4136.1" class="st8" width="3.7" height="3.9"/>
<rect x="4016.5" y="4144.3" class="st8" width="3.7" height="3.9"/>
<rect x="4024.1" y="4136.2" class="st8" width="3.7" height="3.9"/>
<rect x="4024" y="4144.4" class="st8" width="3.7" height="3.9"/>
<rect x="4024.1" y="4136.2" class="st8" width="3.7" height="3.9"/>
<rect x="4024" y="4144.4" class="st8" width="3.7" height="3.9"/>
<rect x="4031.6" y="4136.3" class="st8" width="3.7" height="3.9"/>
<rect x="4031.5" y="4144.4" class="st8" width="3.7" height="3.9"/>
<rect x="4031.6" y="4136.3" class="st8" width="3.7" height="3.9"/>
<rect x="4031.5" y="4144.4" class="st8" width="3.7" height="3.9"/>
<rect x="4039.1" y="4136.4" class="st8" width="3.7" height="3.9"/>
<rect x="4038.9" y="4144.5" class="st8" width="3.7" height="3.9"/>
<rect x="4039.1" y="4136.4" class="st8" width="3.7" height="3.9"/>
<rect x="4038.9" y="4144.5" class="st8" width="3.7" height="3.9"/>
<rect x="4046.6" y="4136.4" class="st8" width="3.7" height="3.9"/>
<rect x="4046.4" y="4144.6" class="st8" width="3.7" height="3.9"/>
<rect x="4046.6" y="4136.4" class="st8" width="3.7" height="3.9"/>
<rect x="4046.4" y="4144.6" class="st8" width="3.7" height="3.9"/>
<rect x="4054" y="4136.5" class="st8" width="3.7" height="3.9"/>
<rect x="4053.9" y="4144.6" class="st8" width="3.7" height="3.9"/>
<rect x="4054" y="4136.5" class="st8" width="3.7" height="3.9"/>
<rect x="4053.9" y="4144.6" class="st8" width="3.7" height="3.9"/>
<rect x="4061.5" y="4136.6" class="st8" width="3.7" height="3.9"/>
<rect x="4061.4" y="4144.7" class="st8" width="3.7" height="3.9"/>
<rect x="4061.5" y="4136.6" class="st8" width="3.7" height="3.9"/>
<rect x="4061.4" y="4144.7" class="st8" width="3.7" height="3.9"/>
<rect x="4069" y="4136.6" class="st8" width="3.7" height="3.9"/>
<rect x="4068.9" y="4144.8" class="st8" width="3.7" height="3.9"/>
<rect x="4069" y="4136.6" class="st8" width="3.7" height="3.9"/>
<rect x="4068.9" y="4144.8" class="st8" width="3.7" height="3.9"/>
<rect x="4076.5" y="4136.7" class="st8" width="3.7" height="3.9"/>
<rect x="4076.4" y="4144.8" class="st8" width="3.7" height="3.9"/>
<rect x="3914.3" y="4135.3" class="st8" width="2.3" height="2.4"/>
<rect x="3918.4" y="4135.3" class="st8" width="2.3" height="2.4"/>
<rect x="3918.4" y="4135.3" class="st8" width="2.3" height="2.4"/>
<rect x="3922.4" y="4135.3" class="st8" width="2.3" height="2.4"/>
<rect x="3922.4" y="4135.3" class="st8" width="2.3" height="2.4"/>
<rect x="3926.5" y="4135.3" class="st8" width="2.3" height="2.4"/>
<rect x="3918.4" y="4135.4" class="st8" width="2.3" height="2.4"/>
<rect x="3922.4" y="4135.4" class="st8" width="2.3" height="2.4"/>
<rect x="3926.5" y="4135.4" class="st8" width="2.3" height="2.4"/>
<rect x="3918.4" y="4138.8" class="st8" width="2.3" height="2.4"/>
<rect x="3922.4" y="4138.8" class="st8" width="2.3" height="2.4"/>
<rect x="3926.5" y="4138.8" class="st8" width="2.3" height="2.4"/>
<rect x="3914.3" y="4138.7" class="st8" width="2.3" height="2.4"/>
</svg>
