<?xml version="1.0" encoding="utf-8"?>
<!-- Generator: Adobe Illustrator 25.4.1, SVG Export Plug-In . SVG Version: 6.00 Build 0)  -->
<svg version="1.1" id="Слой_2" xmlns="http://www.w3.org/2000/svg" xmlns:xlink="http://www.w3.org/1999/xlink" x="0px" y="0px"
	 viewBox="0 0 1920 1080" style="enable-background:new 0 0 1920 1080;" xml:space="preserve">
<style type="text/css">
	.st0{display:none;}
	.st1{display:inline;fill:#549A79;}
	.st2{display:inline;fill:#999999;}
	.st3{display:inline;fill:#F2F2A7;}
	.st4{fill:#808080;}
	.st5{fill:#BFBFBF;}
	.st6{fill:#EFF2F2;}
	.st7{fill:#AEBFBF;}
	.st8{fill:#FFFFFF;}
</style>
<g id="Слой_3" class="st0">
	<path class="st1" d="M955.09-55.61v-49.85H800.9l0,0H671.59v49.85c8.64,2.46,8.57,13.87,0,16.98l1.05,234.53h133.44l0,0h147.79
		l1.23-234.53C945.09-41.74,944.99-53.15,955.09-55.61z"/>
	<path class="st2" d="M933.14-21.19l0.17-40.24v-7.41c0,0-3.24-7.93-8.93-10.34h-94.76h-32.67h-94.76
		c-5.68,2.42-8.93,10.34-8.93,10.34v7.41l0.17,40.24c-8.36,5-9.74,11.21-9.74,11.21v110.99l9.58,8.97v59.71
		c0.17,5.86,10.39,9.1,10.39,9.1h18.6c2.95,3.37,8.66,5.17,8.66,5.17h64.08c9.66-9.52,10.75-10.81,10.75-10.81h47.4
		c1.45,1.45,3.31,3.3,5.7,5.64h64.08c0,0,10.22-3.24,10.39-9.1v-59.71l9.58-8.97V-9.98C942.87-9.98,941.49-16.19,933.14-21.19z"/>
</g>
<g id="Слой_4" class="st0">
	<ellipse class="st3" cx="680.12" cy="-95.36" rx="4.94" ry="5.24"/>
	<ellipse class="st3" cx="947.75" cy="189.18" rx="2.97" ry="3.15"/>
	<ellipse class="st3" cx="947.23" cy="-96.59" rx="2.97" ry="3.15"/>
	<polygon class="st3" points="672.58,181.67 672.62,193.39 685.22,193.39 	"/>
	<ellipse class="st3" cx="677.59" cy="-68.67" rx="1.72" ry="1.83"/>
	<ellipse class="st3" cx="681.63" cy="-65.85" rx="1.72" ry="1.83"/>
	<ellipse class="st3" cx="677.3" cy="-62.82" rx="1.72" ry="1.83"/>
	<ellipse class="st3" cx="681.35" cy="-60.01" rx="1.72" ry="1.83"/>
	<ellipse class="st3" cx="849.64" cy="-99.45" rx="2.24" ry="2.37"/>
	<ellipse class="st3" cx="844.12" cy="-99.46" rx="2.24" ry="2.37"/>
	<ellipse class="st3" cx="838.61" cy="-99.46" rx="2.24" ry="2.37"/>
	<ellipse class="st3" cx="833.09" cy="-99.46" rx="2.24" ry="2.37"/>
	<ellipse class="st3" cx="827.57" cy="-99.48" rx="2.24" ry="2.37"/>
	<ellipse class="st3" cx="822.05" cy="-99.48" rx="2.24" ry="2.37"/>
	<ellipse class="st3" cx="816.54" cy="-99.49" rx="2.24" ry="2.37"/>
	<ellipse class="st3" cx="811.02" cy="-99.49" rx="2.24" ry="2.37"/>
	<ellipse class="st3" cx="805.5" cy="-99.51" rx="2.24" ry="2.37"/>
	<ellipse class="st3" cx="799.99" cy="-99.51" rx="2.24" ry="2.37"/>
	<ellipse class="st3" cx="794.47" cy="-99.51" rx="2.24" ry="2.37"/>
	<ellipse class="st3" cx="788.95" cy="-99.52" rx="2.24" ry="2.37"/>
	<ellipse class="st3" cx="783.43" cy="-99.52" rx="2.24" ry="2.37"/>
	<ellipse class="st3" cx="777.92" cy="-99.53" rx="2.24" ry="2.37"/>
	<ellipse class="st3" cx="772.4" cy="-99.53" rx="2.24" ry="2.37"/>
	<ellipse class="st3" cx="766.88" cy="-99.55" rx="2.24" ry="2.37"/>
	<ellipse class="st3" cx="761.37" cy="-99.55" rx="2.24" ry="2.37"/>
	<ellipse class="st3" cx="755.85" cy="-99.55" rx="2.24" ry="2.37"/>
	<ellipse class="st3" cx="750.33" cy="-99.56" rx="2.24" ry="2.37"/>
	<ellipse class="st3" cx="744.81" cy="-99.56" rx="2.24" ry="2.37"/>
	<ellipse class="st3" cx="739.3" cy="-99.58" rx="2.24" ry="2.37"/>
	<ellipse class="st3" cx="733.78" cy="-99.58" rx="2.24" ry="2.37"/>
	<ellipse class="st3" cx="728.26" cy="-99.58" rx="2.24" ry="2.37"/>
	<ellipse class="st3" cx="722.75" cy="-99.59" rx="2.24" ry="2.37"/>
	<ellipse class="st3" cx="717.23" cy="-99.59" rx="2.24" ry="2.37"/>
	<ellipse class="st3" cx="711.71" cy="-99.61" rx="2.24" ry="2.37"/>
	<ellipse class="st3" cx="853.54" cy="-92.47" rx="2.24" ry="2.37"/>
	<ellipse class="st3" cx="848.02" cy="-92.47" rx="2.24" ry="2.37"/>
	<ellipse class="st3" cx="842.5" cy="-92.49" rx="2.24" ry="2.37"/>
	<ellipse class="st3" cx="836.98" cy="-92.49" rx="2.24" ry="2.37"/>
	<ellipse class="st3" cx="831.46" cy="-92.49" rx="2.24" ry="2.37"/>
	<ellipse class="st3" cx="825.95" cy="-92.5" rx="2.24" ry="2.37"/>
	<ellipse class="st3" cx="820.44" cy="-92.5" rx="2.24" ry="2.37"/>
	<ellipse class="st3" cx="814.92" cy="-92.52" rx="2.24" ry="2.37"/>
	<ellipse class="st3" cx="809.4" cy="-92.52" rx="2.24" ry="2.37"/>
	<ellipse class="st3" cx="803.88" cy="-92.53" rx="2.24" ry="2.37"/>
	<ellipse class="st3" cx="798.36" cy="-92.53" rx="2.24" ry="2.37"/>
	<ellipse class="st3" cx="792.84" cy="-92.53" rx="2.24" ry="2.37"/>
	<ellipse class="st3" cx="787.33" cy="-92.55" rx="2.24" ry="2.37"/>
	<ellipse class="st3" cx="781.82" cy="-92.55" rx="2.24" ry="2.37"/>
	<ellipse class="st3" cx="776.3" cy="-92.56" rx="2.24" ry="2.37"/>
	<ellipse class="st3" cx="770.78" cy="-92.56" rx="2.24" ry="2.37"/>
	<ellipse class="st3" cx="765.26" cy="-92.56" rx="2.24" ry="2.37"/>
	<ellipse class="st3" cx="759.74" cy="-92.58" rx="2.24" ry="2.37"/>
	<ellipse class="st3" cx="754.22" cy="-92.58" rx="2.24" ry="2.37"/>
	<ellipse class="st3" cx="748.71" cy="-92.59" rx="2.24" ry="2.37"/>
	<ellipse class="st3" cx="743.19" cy="-92.59" rx="2.24" ry="2.37"/>
	<ellipse class="st3" cx="737.68" cy="-92.6" rx="2.24" ry="2.37"/>
	<ellipse class="st3" cx="732.16" cy="-92.6" rx="2.24" ry="2.37"/>
	<ellipse class="st3" cx="726.64" cy="-92.6" rx="2.24" ry="2.37"/>
	<ellipse class="st3" cx="721.12" cy="-92.62" rx="2.24" ry="2.37"/>
	<ellipse class="st3" cx="715.6" cy="-92.62" rx="2.24" ry="2.37"/>
	<ellipse class="st3" cx="859.58" cy="-85.24" rx="2.24" ry="2.37"/>
	<ellipse class="st3" cx="854.06" cy="-85.24" rx="2.24" ry="2.37"/>
	<ellipse class="st3" cx="848.55" cy="-85.24" rx="2.24" ry="2.37"/>
	<ellipse class="st3" cx="843.03" cy="-85.25" rx="2.24" ry="2.37"/>
	<ellipse class="st3" cx="837.51" cy="-85.25" rx="2.24" ry="2.37"/>
	<ellipse class="st3" cx="831.99" cy="-85.27" rx="2.24" ry="2.37"/>
	<ellipse class="st3" cx="826.48" cy="-85.27" rx="2.24" ry="2.37"/>
	<ellipse class="st3" cx="820.96" cy="-85.28" rx="2.24" ry="2.37"/>
	<ellipse class="st3" cx="815.45" cy="-85.28" rx="2.24" ry="2.37"/>
	<ellipse class="st3" cx="809.93" cy="-85.28" rx="2.24" ry="2.37"/>
	<ellipse class="st3" cx="804.41" cy="-85.29" rx="2.24" ry="2.37"/>
	<ellipse class="st3" cx="798.89" cy="-85.29" rx="2.24" ry="2.37"/>
	<ellipse class="st3" cx="793.37" cy="-85.31" rx="2.24" ry="2.37"/>
	<ellipse class="st3" cx="787.86" cy="-85.31" rx="2.24" ry="2.37"/>
	<ellipse class="st3" cx="782.34" cy="-85.32" rx="2.24" ry="2.37"/>
	<ellipse class="st3" cx="776.83" cy="-85.32" rx="2.24" ry="2.37"/>
	<ellipse class="st3" cx="771.31" cy="-85.32" rx="2.24" ry="2.37"/>
	<ellipse class="st3" cx="765.79" cy="-85.34" rx="2.24" ry="2.37"/>
	<ellipse class="st3" cx="760.27" cy="-85.34" rx="2.24" ry="2.37"/>
	<ellipse class="st3" cx="754.75" cy="-85.35" rx="2.24" ry="2.37"/>
	<ellipse class="st3" cx="749.23" cy="-85.35" rx="2.24" ry="2.37"/>
	<ellipse class="st3" cx="743.72" cy="-85.35" rx="2.24" ry="2.37"/>
	<ellipse class="st3" cx="738.21" cy="-85.37" rx="2.24" ry="2.37"/>
	<ellipse class="st3" cx="732.69" cy="-85.37" rx="2.24" ry="2.37"/>
	<ellipse class="st3" cx="727.17" cy="-85.38" rx="2.24" ry="2.37"/>
	<ellipse class="st3" cx="721.65" cy="-85.38" rx="2.24" ry="2.37"/>
</g>
<path class="st4" d="M451.25,639.17l0-26.24c6.71-2.77,12.3-6.56,14.98-13.01l157.19-1.36c0.17,4.62,2.84,9.04,7.1,13.33l7.06,0
	v9.92l34.17-0.23v-9.77l5.28-0.08c5.4-2.66,8.9-6.65,8.77-13.18h128.26v40.62h125.98v-40.62h438.33v40.62h-4.97v26.59h4.97v29.26
	h-8.29l0.05,16.13h7.86v71.35H451.25v-67.49V639.17z"/>
<path class="st5" d="M429.21,715.46l22.04,0.45v-43.63c0,0-4.28,6.02-8.45,2.95c-4.17-3.07-5.35-6.36-5.35-6.36l-0.21-11.93
	c1.23-3.78,2.89-6.68,5.67-7.31l-13.7,0.3V715.46z"/>
<path class="st5" d="M451.25,653.03c-1.3-2.56-3.68-4.09-8.44-3.37c-4.96,0.61-13.6,0.28-13.6,0.28v-17.91l11.02-7.27l0-10.53
	c-4.56-0.39-8.3-2.25-11.02-5.91l0-13.03c0,0,2.85-7.95,9.49-1.44l-0.07,9.32c0,4.21,2.63,6.71,6.92,8.33
	c4.05,1.14,6.62-0.51,7.28-5.76l6.42,0h4.42L451.25,653.03z"/>
<path class="st5" d="M465.24,609.76l-5.99-4.01c1.95-6.46,1.72-11.63-2.43-14.45l28.87,0v5.59l892.69-5.3v7.73L465.24,609.76z"/>
<polygon class="st6" points="485.72,582.46 1378.37,582.46 1378.37,591.6 485.67,596.89 "/>
<polygon class="st5" points="519.31,714.14 524.44,714.14 524.44,700.05 553.55,700.05 553.55,673.99 529.01,674.9 528.86,678.84 
	542.56,678.84 542.42,684.9 519.31,685.2 519.31,673.99 515.03,673.99 515.03,710.65 519.45,710.65 "/>
<polygon class="st5" points="520.02,640.74 520.02,657.94 553.55,657.41 553.55,663.47 535.43,663.47 532.29,667.71 532.36,669.75 
	537.35,669.75 539.21,665.81 543.49,665.89 546.34,669.75 553.55,669.75 557.33,669.75 557.33,643.7 536.14,643.62 536.21,640.74 
	"/>
<rect x="557.33" y="655.25" class="st5" width="771.63" height="7.23"/>
<polyline class="st5" points="564.64,705.35 567.53,705.35 567.53,642.98 564.64,642.98 "/>
<polyline class="st5" points="572.06,705.35 574.95,705.35 574.95,642.98 572.06,642.98 "/>
<polyline class="st5" points="579.48,705.35 582.37,705.35 582.37,642.98 579.48,642.98 "/>
<polyline class="st5" points="586.9,705.35 589.78,705.35 589.78,642.98 586.9,642.98 "/>
<polyline class="st5" points="594.31,705.35 597.2,705.35 597.2,642.98 594.31,642.98 "/>
<polyline class="st5" points="601.73,705.35 604.62,705.35 604.62,642.98 601.73,642.98 "/>
<polyline class="st5" points="609.15,705.35 612.04,705.35 612.04,642.98 609.15,642.98 "/>
<polyline class="st5" points="616.57,705.35 619.46,705.35 619.46,642.98 616.57,642.98 "/>
<polyline class="st5" points="623.99,705.35 626.88,705.35 626.88,642.98 623.99,642.98 "/>
<polyline class="st5" points="631.41,705.35 634.3,705.35 634.3,642.98 631.41,642.98 "/>
<polyline class="st5" points="638.83,705.35 641.72,705.35 641.72,642.98 638.83,642.98 "/>
<polyline class="st5" points="646.25,705.35 649.13,705.35 649.13,642.98 646.25,642.98 "/>
<polyline class="st5" points="653.66,705.35 656.55,705.35 656.55,642.98 653.66,642.98 "/>
<polyline class="st5" points="661.08,705.35 663.97,705.35 663.97,642.98 661.08,642.98 "/>
<polyline class="st5" points="668.5,705.35 671.39,705.35 671.39,642.98 668.5,642.98 "/>
<polyline class="st5" points="675.92,705.35 678.81,705.35 678.81,642.98 675.92,642.98 "/>
<polyline class="st5" points="683.34,705.35 686.23,705.35 686.23,642.98 683.34,642.98 "/>
<polyline class="st5" points="690.76,705.35 693.65,705.35 693.65,642.98 690.76,642.98 "/>
<polyline class="st5" points="698.18,705.35 701.07,705.35 701.07,642.98 698.18,642.98 "/>
<polyline class="st5" points="705.6,705.35 708.49,705.35 708.49,642.98 705.6,642.98 "/>
<polyline class="st5" points="713.02,705.35 715.9,705.35 715.9,642.98 713.02,642.98 "/>
<polyline class="st5" points="720.43,705.35 723.32,705.35 723.32,642.98 720.43,642.98 "/>
<polyline class="st5" points="727.85,705.35 730.74,705.35 730.74,642.98 727.85,642.98 "/>
<polyline class="st5" points="735.27,705.35 738.16,705.35 738.16,642.98 735.27,642.98 "/>
<polyline class="st5" points="742.69,705.35 745.58,705.35 745.58,642.98 742.69,642.98 "/>
<polyline class="st5" points="750.11,705.35 753,705.35 753,642.98 750.11,642.98 "/>
<polyline class="st5" points="757.53,705.35 760.42,705.35 760.42,642.98 757.53,642.98 "/>
<polyline class="st5" points="764.95,705.35 767.84,705.35 767.84,642.98 764.95,642.98 "/>
<polyline class="st5" points="772.37,705.35 775.25,705.35 775.25,642.98 772.37,642.98 "/>
<polyline class="st5" points="779.78,705.35 782.67,705.35 782.67,642.98 779.78,642.98 "/>
<polyline class="st5" points="787.2,705.35 790.09,705.35 790.09,642.98 787.2,642.98 "/>
<polyline class="st5" points="794.62,705.35 797.51,705.35 797.51,642.98 794.62,642.98 "/>
<polyline class="st5" points="802.04,705.35 804.93,705.35 804.93,642.98 802.04,642.98 "/>
<polyline class="st5" points="809.46,705.35 812.35,705.35 812.35,642.98 809.46,642.98 "/>
<polyline class="st5" points="816.88,705.35 819.77,705.35 819.77,642.98 816.88,642.98 "/>
<polyline class="st5" points="824.3,705.35 827.19,705.35 827.19,642.98 824.3,642.98 "/>
<polyline class="st5" points="831.72,705.35 834.61,705.35 834.61,642.98 831.72,642.98 "/>
<polyline class="st5" points="839.13,705.35 842.02,705.35 842.02,642.98 839.13,642.98 "/>
<polyline class="st5" points="846.55,705.35 849.44,705.35 849.44,642.98 846.55,642.98 "/>
<polyline class="st5" points="853.97,705.35 856.86,705.35 856.86,642.98 853.97,642.98 "/>
<polyline class="st5" points="861.39,705.35 864.28,705.35 864.28,642.98 861.39,642.98 "/>
<polyline class="st5" points="868.81,705.35 871.7,705.35 871.7,642.98 868.81,642.98 "/>
<polyline class="st5" points="876.23,705.35 879.12,705.35 879.12,642.98 876.23,642.98 "/>
<polyline class="st5" points="883.65,705.35 886.54,705.35 886.54,642.98 883.65,642.98 "/>
<polyline class="st5" points="891.07,705.35 893.96,705.35 893.96,642.98 891.07,642.98 "/>
<polyline class="st5" points="898.49,705.35 901.37,705.35 901.37,642.98 898.49,642.98 "/>
<polyline class="st5" points="905.9,705.35 908.79,705.35 908.79,642.98 905.9,642.98 "/>
<polyline class="st5" points="913.32,705.35 916.21,705.35 916.21,642.98 913.32,642.98 "/>
<polyline class="st5" points="920.74,705.35 923.63,705.35 923.63,642.98 920.74,642.98 "/>
<polyline class="st5" points="928.16,705.35 931.05,705.35 931.05,642.98 928.16,642.98 "/>
<polyline class="st5" points="935.58,705.35 938.47,705.35 938.47,642.98 935.58,642.98 "/>
<polyline class="st5" points="943,705.35 945.89,705.35 945.89,642.98 943,642.98 "/>
<polyline class="st5" points="950.42,705.35 953.31,705.35 953.31,642.98 950.42,642.98 "/>
<polyline class="st5" points="957.84,705.35 960.73,705.35 960.73,642.98 957.84,642.98 "/>
<polyline class="st5" points="965.25,705.35 968.14,705.35 968.14,642.98 965.25,642.98 "/>
<polyline class="st5" points="972.67,705.35 975.56,705.35 975.56,642.98 972.67,642.98 "/>
<polyline class="st5" points="980.09,705.35 982.98,705.35 982.98,642.98 980.09,642.98 "/>
<polyline class="st5" points="987.51,705.35 990.4,705.35 990.4,642.98 987.51,642.98 "/>
<polyline class="st5" points="994.93,705.35 997.82,705.35 997.82,642.98 994.93,642.98 "/>
<polyline class="st5" points="1002.35,705.35 1005.24,705.35 1005.24,642.98 1002.35,642.98 "/>
<polyline class="st5" points="1009.77,705.35 1012.66,705.35 1012.66,642.98 1009.77,642.98 "/>
<polyline class="st5" points="1017.19,705.35 1020.08,705.35 1020.08,642.98 1017.19,642.98 "/>
<polyline class="st5" points="1024.61,705.35 1027.49,705.35 1027.49,642.98 1024.61,642.98 "/>
<polyline class="st5" points="1032.02,705.35 1034.91,705.35 1034.91,642.98 1032.02,642.98 "/>
<polyline class="st5" points="1039.44,705.35 1042.33,705.35 1042.33,642.98 1039.44,642.98 "/>
<polyline class="st5" points="1046.86,705.35 1049.75,705.35 1049.75,642.98 1046.86,642.98 "/>
<polyline class="st5" points="1054.28,705.35 1057.17,705.35 1057.17,642.98 1054.28,642.98 "/>
<polyline class="st5" points="1061.7,705.35 1064.59,705.35 1064.59,642.98 1061.7,642.98 "/>
<polyline class="st5" points="1069.12,705.35 1072.01,705.35 1072.01,642.98 1069.12,642.98 "/>
<polyline class="st5" points="1076.54,705.35 1079.43,705.35 1079.43,642.98 1076.54,642.98 "/>
<polyline class="st5" points="1083.96,705.35 1086.84,705.35 1086.84,642.98 1083.96,642.98 "/>
<polyline class="st5" points="1091.37,705.35 1094.26,705.35 1094.26,642.98 1091.37,642.98 "/>
<polyline class="st5" points="1098.79,705.35 1101.68,705.35 1101.68,642.98 1098.79,642.98 "/>
<polyline class="st5" points="1106.21,705.35 1109.1,705.35 1109.1,642.98 1106.21,642.98 "/>
<polyline class="st5" points="1113.63,705.35 1116.52,705.35 1116.52,642.98 1113.63,642.98 "/>
<polyline class="st5" points="1121.05,705.35 1123.94,705.35 1123.94,642.98 1121.05,642.98 "/>
<polyline class="st5" points="1128.47,705.35 1131.36,705.35 1131.36,642.98 1128.47,642.98 "/>
<polyline class="st5" points="1135.89,705.35 1138.78,705.35 1138.78,642.98 1135.89,642.98 "/>
<polyline class="st5" points="1143.31,705.35 1146.2,705.35 1146.2,642.98 1143.31,642.98 "/>
<polyline class="st5" points="1150.73,705.35 1153.61,705.35 1153.61,642.98 1150.73,642.98 "/>
<polyline class="st5" points="1158.14,705.35 1161.03,705.35 1161.03,642.98 1158.14,642.98 "/>
<polyline class="st5" points="1165.56,705.35 1168.45,705.35 1168.45,642.98 1165.56,642.98 "/>
<polyline class="st5" points="1172.98,705.35 1175.87,705.35 1175.87,642.98 1172.98,642.98 "/>
<polyline class="st5" points="1180.4,705.35 1183.29,705.35 1183.29,642.98 1180.4,642.98 "/>
<polyline class="st5" points="1187.82,705.35 1190.71,705.35 1190.71,642.98 1187.82,642.98 "/>
<polyline class="st5" points="1195.24,705.35 1198.13,705.35 1198.13,642.98 1195.24,642.98 "/>
<polyline class="st5" points="1202.66,705.35 1205.55,705.35 1205.55,642.98 1202.66,642.98 "/>
<polyline class="st5" points="1210.08,705.35 1212.96,705.35 1212.96,642.98 1210.08,642.98 "/>
<polyline class="st5" points="1217.49,705.35 1220.38,705.35 1220.38,642.98 1217.49,642.98 "/>
<polyline class="st5" points="1224.91,705.35 1227.8,705.35 1227.8,642.98 1224.91,642.98 "/>
<polyline class="st5" points="1232.33,705.35 1235.22,705.35 1235.22,642.98 1232.33,642.98 "/>
<polyline class="st5" points="1239.75,705.35 1242.64,705.35 1242.64,642.98 1239.75,642.98 "/>
<polyline class="st5" points="1247.17,705.35 1250.06,705.35 1250.06,642.98 1247.17,642.98 "/>
<polyline class="st5" points="1254.59,705.35 1257.48,705.35 1257.48,642.98 1254.59,642.98 "/>
<polyline class="st5" points="1262.01,705.35 1264.9,705.35 1264.9,642.98 1262.01,642.98 "/>
<polyline class="st5" points="1269.43,705.35 1272.32,705.35 1272.32,642.98 1269.43,642.98 "/>
<polyline class="st5" points="1276.85,705.35 1279.73,705.35 1279.73,642.98 1276.85,642.98 "/>
<polyline class="st5" points="1284.26,705.35 1287.15,705.35 1287.15,642.98 1284.26,642.98 "/>
<polyline class="st5" points="1291.68,705.35 1294.57,705.35 1294.57,642.98 1291.68,642.98 "/>
<polyline class="st5" points="1299.1,705.35 1301.99,705.35 1301.99,642.98 1299.1,642.98 "/>
<polyline class="st5" points="1306.52,705.35 1309.41,705.35 1309.41,642.98 1306.52,642.98 "/>
<polyline class="st5" points="1313.94,705.35 1316.83,705.35 1316.83,642.98 1313.94,642.98 "/>
<polyline class="st5" points="1321.36,705.35 1324.25,705.35 1324.25,642.98 1321.36,642.98 "/>
<path d="M627.08,607.91l3.43,3.97l7.06,0v9.92l34.17-0.23v-9.77l5.28-0.08c2.56-1.19,4.66-2.8,5.72-4.46L627.08,607.91z"/>
<polygon points="814.06,605.77 814.06,639.17 940.04,639.17 940.04,604.33 "/>
<path class="st6" d="M452.52,705.64v75.1h925.46v-71.35l-17.37-0.04l-22.54,31.81c-1.6,2.05-3.62,3.47-6.71,3.33l-89.17,0.3
	l-24.29-0.19l-29.53,19.43l-4.07,2.39l-67.95,0.17l-464.8-0.06l-35.12-21.98l-114.14-3.09L481,705.64H452.52z"/>
<path class="st7" d="M791.3,767"/>
<rect x="820.94" y="611.07" class="st8" width="6.42" height="6.82"/>
<rect x="820.73" y="625.37" class="st8" width="6.42" height="6.82"/>
<rect x="834.11" y="611.19" class="st8" width="6.42" height="6.82"/>
<rect x="833.89" y="625.49" class="st8" width="6.42" height="6.82"/>
<rect x="834.11" y="611.19" class="st8" width="6.42" height="6.82"/>
<rect x="833.89" y="625.49" class="st8" width="6.42" height="6.82"/>
<rect x="847.27" y="611.31" class="st8" width="6.42" height="6.82"/>
<rect x="847.05" y="625.61" class="st8" width="6.42" height="6.82"/>
<rect x="847.27" y="611.31" class="st8" width="6.42" height="6.82"/>
<rect x="847.05" y="625.61" class="st8" width="6.42" height="6.82"/>
<rect x="860.43" y="611.44" class="st8" width="6.42" height="6.82"/>
<rect x="860.21" y="625.73" class="st8" width="6.42" height="6.82"/>
<rect x="860.43" y="611.44" class="st8" width="6.42" height="6.82"/>
<rect x="860.21" y="625.73" class="st8" width="6.42" height="6.82"/>
<rect x="873.59" y="611.56" class="st8" width="6.42" height="6.82"/>
<rect x="873.38" y="625.85" class="st8" width="6.42" height="6.82"/>
<rect x="873.59" y="611.56" class="st8" width="6.42" height="6.82"/>
<rect x="873.38" y="625.85" class="st8" width="6.42" height="6.82"/>
<rect x="886.75" y="611.68" class="st8" width="6.42" height="6.82"/>
<rect x="886.54" y="625.98" class="st8" width="6.42" height="6.82"/>
<rect x="886.75" y="611.68" class="st8" width="6.42" height="6.82"/>
<rect x="886.54" y="625.98" class="st8" width="6.42" height="6.82"/>
<rect x="899.91" y="611.8" class="st8" width="6.42" height="6.82"/>
<rect x="899.7" y="626.1" class="st8" width="6.42" height="6.82"/>
<rect x="899.91" y="611.8" class="st8" width="6.42" height="6.82"/>
<rect x="899.7" y="626.1" class="st8" width="6.42" height="6.82"/>
<rect x="913.07" y="611.92" class="st8" width="6.42" height="6.82"/>
<rect x="912.86" y="626.22" class="st8" width="6.42" height="6.82"/>
<rect x="913.07" y="611.92" class="st8" width="6.42" height="6.82"/>
<rect x="912.86" y="626.22" class="st8" width="6.42" height="6.82"/>
<rect x="926.23" y="612.04" class="st8" width="6.42" height="6.82"/>
<rect x="926.02" y="626.34" class="st8" width="6.42" height="6.82"/>
<rect x="641.11" y="609.61" class="st8" width="4.03" height="4.28"/>
<rect x="648.24" y="609.61" class="st8" width="4.03" height="4.28"/>
<rect x="648.24" y="609.61" class="st8" width="4.03" height="4.28"/>
<rect x="655.37" y="609.61" class="st8" width="4.03" height="4.28"/>
<rect x="655.37" y="609.61" class="st8" width="4.03" height="4.28"/>
<rect x="662.5" y="609.61" class="st8" width="4.03" height="4.28"/>
<rect x="648.24" y="609.76" class="st8" width="4.03" height="4.28"/>
<rect x="655.37" y="609.76" class="st8" width="4.03" height="4.28"/>
<rect x="662.5" y="609.76" class="st8" width="4.03" height="4.28"/>
<rect x="648.27" y="615.65" class="st8" width="4.03" height="4.28"/>
<rect x="655.4" y="615.65" class="st8" width="4.03" height="4.28"/>
<rect x="662.53" y="615.65" class="st8" width="4.03" height="4.28"/>
<rect x="641.11" y="615.59" class="st8" width="4.03" height="4.28"/>
</svg>
